<svg xmlns="http://www.w3.org/2000/svg" xmlns:xlink="http://www.w3.org/1999/xlink" width="1920" height="1080" viewBox="0 0 1920 1080"><defs><linearGradient id="a" x1="0.415" y1="1.117" x2="1.195" y2="-0.207" gradientUnits="objectBoundingBox"><stop offset="0" stop-color="#fff"/><stop offset="0.047" stop-color="#fff"/><stop offset="0.785" stop-color="#f3f3f3"/><stop offset="0.925" stop-color="#ededed"/><stop offset="1" stop-color="#ededed"/></linearGradient><linearGradient id="b" x1="0.509" y1="0.883" x2="0.546" y2="0.268" gradientUnits="objectBoundingBox"><stop offset="0" stop-color="#fff"/><stop offset="1" stop-color="#f4f4f4"/></linearGradient><linearGradient id="c" x1="0.172" y1="0.569" x2="1.102" y2="-0.032" gradientUnits="objectBoundingBox"><stop offset="0" stop-color="#fff"/><stop offset="1" stop-color="#f2f2f2"/></linearGradient><linearGradient id="d" x1="0.492" y1="0.9" x2="0.48" y2="0.138" xlink:href="#c"/><linearGradient id="e" x1="0.5" x2="0.5" y2="1" gradientUnits="objectBoundingBox"><stop offset="0" stop-color="#fff" stop-opacity="0"/><stop offset="1" stop-color="#fff"/></linearGradient><clipPath id="g"><rect width="1920" height="1080"/></clipPath></defs><g id="f" clip-path="url(#g)"><rect width="1920" height="1080" fill="#fff"/><path d="M.1,182.785s542.23-89.175,783.075,25.289,251.691,205.077,180.3,432.566-353.126,520-465.85,477.389S636.97,704.006,512.587,470.2.1,182.785.1,182.785Z" transform="translate(2039.759 638.652) rotate(120)" fill="url(#a)"/><path d="M750.263,370.347c1300.828,267.6,305.274,444.145-69.175,444.145S-539.7,229.251-393.57,42.536-550.565,102.742,750.263,370.347Z" transform="translate(174.486 -171.384) rotate(45)" opacity="0.46" fill="url(#b)"/><path d="M.1,181.785S769.929,35.714,769.929,206.646c0,56.749,232.413,302.951,177.253,425.246C835.528,879.441,326.722,1652.74,215.906,1610.849S557.866,821.6,503.916,464.331.1,181.785.1,181.785Z" transform="translate(1279 -188)" fill="url(#c)"/><path d="M750.263,370.347c562.609,75.965,1106.6-23.95,1106.6-23.95s-801.329,468.1-1175.778,468.1S-393.57,42.536-393.57,42.536,187.654,294.382,750.263,370.347Z" transform="translate(-0.514 56.616) rotate(45)" fill="url(#d)"/><rect width="1920" height="231" transform="translate(0 849)" fill="url(#e)"/></g></svg>